<svg width="35" height="28" viewBox="0 0 35 28" fill="none" xmlns="http://www.w3.org/2000/svg">
    <g clip-path="url(#clip0_2082_64)">
    <path d="M3.39 24.62C5.65 26.97 9.85 28.21 16 28.35V18.86C13.69 18.68 12.19 18.36 11.49 17.91C10.79 17.46 10.39 16.53 10.3 15.13H16V0H5.4V3.04L2.36 0H0V13.22C0 18.46 1.13 22.26 3.39 24.61V24.62Z" fill="white"/>
    <path d="M31.4501 3.73C29.1901 1.38 24.9901 0.14 18.8401 0V9.49C21.1501 9.67 22.6501 9.99 23.3501 10.44C24.0501 10.89 24.4501 11.82 24.5401 13.22H18.8401V28.34H29.4501V25.3L32.4901 28.34H34.8501V15.12C34.8501 9.88 33.7201 6.08 31.4601 3.73H31.4501Z" fill="white"/>
    </g>
    <defs>
    <clipPath id="clip0_2082_64">
    <rect width="35" height="28" fill="white"/>
    </clipPath>
    </defs>
</svg>